<svg version="1.1" viewBox="0.0 0.0 1024.0 1024.0" fill="none" stroke="none" stroke-linecap="square" stroke-miterlimit="10" xmlns:xlink="http://www.w3.org/1999/xlink" xmlns="http://www.w3.org/2000/svg"><clipPath id="p.0"><path d="m0 0l1024.0 0l0 1024.0l-1024.0 0l0 -1024.0z" clip-rule="nonzero"/></clipPath><g clip-path="url(#p.0)"><path fill="#000000" fill-opacity="0.0" d="m0 0l1024.0 0l0 1024.0l-1024.0 0z" fill-rule="evenodd"/><path fill="#23243d" d="m0.0131233595 415.8771l0 0c0 -229.68257 186.19453 -415.8771 415.8771 -415.8771l192.24576 0l0 0c110.297485 0 216.07745 43.8155 294.06952 121.80759c77.99213 77.992096 121.80768 183.77206 121.80768 294.06952l0 192.24576c0 229.68262 -186.19458 415.87714 -415.8772 415.87714l-192.24576 0c-229.68257 0 -415.8771 -186.19452 -415.8771 -415.87714z" fill-rule="evenodd"/><path fill="#f06651" d="m876.0991 505.3429l-47.644165 33.79419l163.71387 188.57935z" fill-rule="evenodd"/><path fill="#f06651" d="m876.03827 505.36288l-66.37158 22.803802l11.518372 45.36554l66.37158 -22.803772z" fill-rule="evenodd"/><path fill="#1864d1" d="m278.591 389.20624l65.5661 32.438538l-312.325 297.51477z" fill-rule="evenodd"/><path fill="#1864d1" d="m278.67737 389.18066l127.78946 30.647156l-17.599731 48.512573l-127.78946 -30.647156z" fill-rule="evenodd"/><path fill="#f08651" d="m819.81616 727.6051l3.6362305 -204.091l-126.31085 -114.62988z" fill-rule="evenodd"/><path fill="#f08651" d="m706.03033 392.4609l-13.048767 17.13919l7.289612 6.632965l13.048767 -17.13919z" fill-rule="evenodd"/><path fill="#f08651" d="m713.9896 397.39285l-7.26947 -9.876801l-7.26947 9.876801z" fill-rule="evenodd"/><path fill="#f08651" d="m705.4376 389.55237l-77.32611 99.63959l7.732605 7.2139587l77.32611 -99.63962z" fill-rule="evenodd"/><path fill="#f08651" d="m709.3425 395.12634l-76.03729 97.89664l7.732605 7.2139587l76.03735 -97.89664z" fill-rule="evenodd"/><path fill="#f08651" d="m711.832 401.17245l-82.27985 105.885254l22.7146 21.01242l82.279785 -105.88522z" fill-rule="evenodd"/><path fill="#f08651" d="m823.1006 523.49664l-131.2392 -115.42706l21.895264 -30.110687z" fill-rule="evenodd"/><path fill="#51a3f0" d="m356.62476 730.43604l-4.3995667 -270.90002l152.52737 -152.1568z" fill-rule="evenodd"/><path fill="#51a3f0" d="m494.02023 285.53546l15.747162 22.755402l-8.779755 8.763245l-15.747131 -22.755402z" fill-rule="evenodd"/><path fill="#51a3f0" d="m484.40912 292.09174l8.779755 -13.1206665l8.779724 13.1206665z" fill-rule="evenodd"/><path fill="#51a3f0" d="m497.49942 278.83832l93.355194 132.22339l-12.122498 12.442841l-93.35516 -132.22339z" fill-rule="evenodd"/><path fill="#51a3f0" d="m490.0206 289.07382l91.784515 129.94788l-9.343567 9.586304l-91.784515 -129.94785z" fill-rule="evenodd"/><path fill="#51a3f0" d="m487.01346 297.09872l88.56259 125.29996l-12.726624 13.023834l-88.56256 -125.29996z" fill-rule="evenodd"/><path fill="#51a3f0" d="m589.7106 399.98212l34.394043 49.23883l-110.71326 27.83905z" fill-rule="evenodd"/><path fill="#51a3f0" d="m352.66092 459.4448l160.9172 -156.77893l-26.321472 -40.17633z" fill-rule="evenodd"/><path fill="#51a3f0" d="m620.25507 384.05313l-39.106018 14.331085l103.78613 239.41583z" fill-rule="evenodd"/><path fill="#000000" fill-opacity="0.0" d="m471.0761 463.43045l190.99213 0l0 129.32285l-190.99213 0z" fill-rule="evenodd"/><path fill="#51a3f0" d="m528.5272 541.16626l0 14.765625l-13.609375 0l0 -48.328156l21.65625 0q6.1875 0 10.015625 1.75q3.828125 1.734375 5.5625 5.5937805q1.734375 3.859375 1.734375 10.125q0 8.359375 -3.875 12.234375q-3.859375 3.859375 -12.28125 3.859375l-9.203125 0zm0 -9.984375l7.5 0q2.015625 0 2.828125 -0.6875q0.8125 -0.703125 0.8125 -2.5625l0 -5.875q0 -1.84375 -0.8125 -2.546875q-0.8125 -0.703125 -2.828125 -0.703125l-7.5 0l0 12.375zm16.078125 0.9375l11.375 23.8125l-14.765625 0l-8.28125 -17.46875l11.671875 -6.34375zm31.401428 11.125l0 12.6875l-13.609375 0l0 -48.328156l21.265625 0q6.1875 0 10.015625 1.75q3.828125 1.734375 5.5625 5.5937805q1.734375 3.859375 1.734375 10.125q0 9.359375 -3.90625 13.765625q-3.890625 4.40625 -12.25 4.40625l-8.8125 0zm0 -9.96875l7.109375 0q2.015625 0 2.828125 -0.6875q0.8125 -0.703125 0.8125 -2.5625l0 -7.96875q0 -1.84375 -0.8125 -2.546875q-0.8125 -0.703125 -2.828125 -0.703125l-7.109375 0l0 14.46875zm28.99414 15.703125q0 -4.03125 1.46875 -5.796875q1.46875 -1.78125 6.109375 -1.78125q4.640625 0 6.109375 1.78125q1.46875 1.765625 1.46875 5.796875q0 4.015625 -1.46875 5.71875q-1.46875 1.703125 -6.109375 1.703125q-4.640625 0 -6.109375 -1.703125q-1.46875 -1.703125 -1.46875 -5.71875z" fill-rule="nonzero"/></g></svg>